<mxfile host="app.diagrams.net" agent="Mozilla/5.0 (Macintosh; Intel Mac OS X 10_15_7) AppleWebKit/537.36 (KHTML, like Gecko) Chrome/135.0.0.0 Safari/537.36" version="26.2.14">
  <diagram name="Page-1" id="Czta91nif1q5FxPIi6_O">
    <mxGraphModel dx="1347" dy="835" grid="1" gridSize="10" guides="1" tooltips="1" connect="1" arrows="1" fold="1" page="1" pageScale="1" pageWidth="850" pageHeight="1100" math="0" shadow="0">
      <root>
        <mxCell id="0" />
        <mxCell id="1" parent="0" />
        <mxCell id="KDbWSI9P8q5qAbHN0_yx-69" value="" style="rounded=0;whiteSpace=wrap;fillColor=none;dashed=1;dashPattern=8 8;html=1;" parent="1" vertex="1">
          <mxGeometry x="180" y="80" width="170" height="310" as="geometry" />
        </mxCell>
        <mxCell id="KDbWSI9P8q5qAbHN0_yx-1" value="NIC&lt;br&gt;eth0" style="rounded=0;whiteSpace=wrap;html=1;" parent="1" vertex="1">
          <mxGeometry x="40" y="114" width="60" height="80" as="geometry" />
        </mxCell>
        <mxCell id="KDbWSI9P8q5qAbHN0_yx-2" value="R&lt;br&gt;X" style="rounded=0;whiteSpace=wrap;html=1;" parent="1" vertex="1">
          <mxGeometry x="100" y="114" width="20" height="40" as="geometry" />
        </mxCell>
        <mxCell id="KDbWSI9P8q5qAbHN0_yx-4" value="W&lt;br&gt;X" style="rounded=0;whiteSpace=wrap;html=1;" parent="1" vertex="1">
          <mxGeometry x="100" y="154" width="20" height="40" as="geometry" />
        </mxCell>
        <mxCell id="KDbWSI9P8q5qAbHN0_yx-5" value="NIC&lt;br&gt;eth1" style="rounded=0;whiteSpace=wrap;html=1;" parent="1" vertex="1">
          <mxGeometry x="40" y="280" width="60" height="80" as="geometry" />
        </mxCell>
        <mxCell id="KDbWSI9P8q5qAbHN0_yx-46" value="" style="edgeStyle=orthogonalEdgeStyle;rounded=0;orthogonalLoop=1;jettySize=auto;entryX=0;entryY=0.5;entryDx=0;entryDy=0;html=1;" parent="1" source="KDbWSI9P8q5qAbHN0_yx-6" target="KDbWSI9P8q5qAbHN0_yx-9" edge="1">
          <mxGeometry relative="1" as="geometry">
            <Array as="points">
              <mxPoint x="150" y="300" />
              <mxPoint x="150" y="204" />
            </Array>
          </mxGeometry>
        </mxCell>
        <mxCell id="KDbWSI9P8q5qAbHN0_yx-6" value="R&lt;br&gt;X" style="rounded=0;whiteSpace=wrap;html=1;" parent="1" vertex="1">
          <mxGeometry x="100" y="280" width="20" height="40" as="geometry" />
        </mxCell>
        <mxCell id="KDbWSI9P8q5qAbHN0_yx-7" value="W&lt;br&gt;X" style="rounded=0;whiteSpace=wrap;html=1;" parent="1" vertex="1">
          <mxGeometry x="100" y="320" width="20" height="40" as="geometry" />
        </mxCell>
        <mxCell id="KDbWSI9P8q5qAbHN0_yx-8" value="" style="rounded=0;whiteSpace=wrap;html=1;" parent="1" vertex="1">
          <mxGeometry x="215" y="99" width="100" height="70" as="geometry" />
        </mxCell>
        <mxCell id="KDbWSI9P8q5qAbHN0_yx-47" value="" style="edgeStyle=orthogonalEdgeStyle;rounded=0;orthogonalLoop=1;jettySize=auto;exitX=0;exitY=0.75;exitDx=0;exitDy=0;entryX=1;entryY=0.5;entryDx=0;entryDy=0;html=1;" parent="1" source="KDbWSI9P8q5qAbHN0_yx-9" target="KDbWSI9P8q5qAbHN0_yx-7" edge="1">
          <mxGeometry relative="1" as="geometry">
            <Array as="points">
              <mxPoint x="170" y="221" />
              <mxPoint x="170" y="340" />
            </Array>
          </mxGeometry>
        </mxCell>
        <mxCell id="KDbWSI9P8q5qAbHN0_yx-9" value="" style="rounded=0;whiteSpace=wrap;html=1;" parent="1" vertex="1">
          <mxGeometry x="215" y="169" width="100" height="70" as="geometry" />
        </mxCell>
        <mxCell id="KDbWSI9P8q5qAbHN0_yx-13" value="srcIP" style="rounded=0;whiteSpace=wrap;fontSize=10;html=1;" parent="1" vertex="1">
          <mxGeometry x="190" y="300" width="30" height="20" as="geometry" />
        </mxCell>
        <mxCell id="KDbWSI9P8q5qAbHN0_yx-14" value="dstIP" style="rounded=0;whiteSpace=wrap;fontSize=10;html=1;" parent="1" vertex="1">
          <mxGeometry x="220" y="300" width="30" height="20" as="geometry" />
        </mxCell>
        <mxCell id="KDbWSI9P8q5qAbHN0_yx-15" value="srcPT" style="rounded=0;whiteSpace=wrap;fontSize=10;html=1;" parent="1" vertex="1">
          <mxGeometry x="250" y="300" width="30" height="20" as="geometry" />
        </mxCell>
        <mxCell id="KDbWSI9P8q5qAbHN0_yx-16" value="dstPT" style="rounded=0;whiteSpace=wrap;fontSize=10;html=1;" parent="1" vertex="1">
          <mxGeometry x="280" y="300" width="30" height="20" as="geometry" />
        </mxCell>
        <mxCell id="KDbWSI9P8q5qAbHN0_yx-17" value="Proto" style="rounded=0;whiteSpace=wrap;fontSize=10;html=1;" parent="1" vertex="1">
          <mxGeometry x="310" y="300" width="30" height="20" as="geometry" />
        </mxCell>
        <mxCell id="KDbWSI9P8q5qAbHN0_yx-18" value="" style="rounded=0;whiteSpace=wrap;fillColor=#f5f5f5;fontColor=#333333;strokeColor=#666666;html=1;" parent="1" vertex="1">
          <mxGeometry x="190" y="320" width="30" height="20" as="geometry" />
        </mxCell>
        <mxCell id="KDbWSI9P8q5qAbHN0_yx-19" value="" style="rounded=0;whiteSpace=wrap;fillColor=#f5f5f5;fontColor=#333333;strokeColor=#666666;html=1;" parent="1" vertex="1">
          <mxGeometry x="220" y="320" width="30" height="20" as="geometry" />
        </mxCell>
        <mxCell id="KDbWSI9P8q5qAbHN0_yx-20" value="" style="rounded=0;whiteSpace=wrap;fillColor=#f5f5f5;fontColor=#333333;strokeColor=#666666;html=1;" parent="1" vertex="1">
          <mxGeometry x="250" y="320" width="30" height="20" as="geometry" />
        </mxCell>
        <mxCell id="KDbWSI9P8q5qAbHN0_yx-21" value="" style="rounded=0;whiteSpace=wrap;fillColor=#f5f5f5;fontColor=#333333;strokeColor=#666666;html=1;" parent="1" vertex="1">
          <mxGeometry x="280" y="320" width="30" height="20" as="geometry" />
        </mxCell>
        <mxCell id="KDbWSI9P8q5qAbHN0_yx-22" value="" style="rounded=0;whiteSpace=wrap;fillColor=#f5f5f5;fontColor=#333333;strokeColor=#666666;html=1;" parent="1" vertex="1">
          <mxGeometry x="310" y="320" width="30" height="20" as="geometry" />
        </mxCell>
        <mxCell id="KDbWSI9P8q5qAbHN0_yx-23" value="" style="rounded=0;whiteSpace=wrap;fillColor=#f5f5f5;fontColor=#333333;strokeColor=#666666;html=1;" parent="1" vertex="1">
          <mxGeometry x="190" y="340" width="30" height="20" as="geometry" />
        </mxCell>
        <mxCell id="KDbWSI9P8q5qAbHN0_yx-24" value="" style="rounded=0;whiteSpace=wrap;fillColor=#f5f5f5;fontColor=#333333;strokeColor=#666666;html=1;" parent="1" vertex="1">
          <mxGeometry x="220" y="340" width="30" height="20" as="geometry" />
        </mxCell>
        <mxCell id="KDbWSI9P8q5qAbHN0_yx-25" value="" style="rounded=0;whiteSpace=wrap;fillColor=#f5f5f5;fontColor=#333333;strokeColor=#666666;html=1;" parent="1" vertex="1">
          <mxGeometry x="250" y="340" width="30" height="20" as="geometry" />
        </mxCell>
        <mxCell id="KDbWSI9P8q5qAbHN0_yx-26" value="" style="rounded=0;whiteSpace=wrap;fillColor=#f5f5f5;fontColor=#333333;strokeColor=#666666;html=1;" parent="1" vertex="1">
          <mxGeometry x="280" y="340" width="30" height="20" as="geometry" />
        </mxCell>
        <mxCell id="KDbWSI9P8q5qAbHN0_yx-27" value="" style="rounded=0;whiteSpace=wrap;fillColor=#f5f5f5;fontColor=#333333;strokeColor=#666666;html=1;" parent="1" vertex="1">
          <mxGeometry x="310" y="340" width="30" height="20" as="geometry" />
        </mxCell>
        <mxCell id="KDbWSI9P8q5qAbHN0_yx-28" value="" style="rounded=0;whiteSpace=wrap;fillColor=#f5f5f5;fontColor=#333333;strokeColor=#666666;html=1;" parent="1" vertex="1">
          <mxGeometry x="190" y="360" width="30" height="20" as="geometry" />
        </mxCell>
        <mxCell id="KDbWSI9P8q5qAbHN0_yx-29" value="" style="rounded=0;whiteSpace=wrap;fillColor=#f5f5f5;fontColor=#333333;strokeColor=#666666;html=1;" parent="1" vertex="1">
          <mxGeometry x="220" y="360" width="30" height="20" as="geometry" />
        </mxCell>
        <mxCell id="KDbWSI9P8q5qAbHN0_yx-30" value="" style="rounded=0;whiteSpace=wrap;fillColor=#f5f5f5;fontColor=#333333;strokeColor=#666666;html=1;" parent="1" vertex="1">
          <mxGeometry x="250" y="360" width="30" height="20" as="geometry" />
        </mxCell>
        <mxCell id="KDbWSI9P8q5qAbHN0_yx-31" value="" style="rounded=0;whiteSpace=wrap;fillColor=#f5f5f5;fontColor=#333333;strokeColor=#666666;html=1;" parent="1" vertex="1">
          <mxGeometry x="280" y="360" width="30" height="20" as="geometry" />
        </mxCell>
        <mxCell id="KDbWSI9P8q5qAbHN0_yx-32" value="" style="rounded=0;whiteSpace=wrap;fillColor=#f5f5f5;fontColor=#333333;strokeColor=#666666;html=1;" parent="1" vertex="1">
          <mxGeometry x="310" y="360" width="30" height="20" as="geometry" />
        </mxCell>
        <mxCell id="KDbWSI9P8q5qAbHN0_yx-38" value="Kernel&amp;nbsp;&lt;br&gt;Networking&amp;nbsp;&lt;br&gt;Stack" style="rounded=0;whiteSpace=wrap;html=1;" parent="1" vertex="1">
          <mxGeometry x="410.5" y="166.5" width="100" height="70" as="geometry" />
        </mxCell>
        <mxCell id="KDbWSI9P8q5qAbHN0_yx-39" value="" style="rounded=0;whiteSpace=wrap;html=1;" parent="1" vertex="1">
          <mxGeometry x="582" y="120" width="168" height="167" as="geometry" />
        </mxCell>
        <mxCell id="KDbWSI9P8q5qAbHN0_yx-40" value="worker 2" style="rounded=0;whiteSpace=wrap;html=1;" parent="1" vertex="1">
          <mxGeometry x="750" y="120" width="60" height="60" as="geometry" />
        </mxCell>
        <mxCell id="KDbWSI9P8q5qAbHN0_yx-41" value="... ..." style="rounded=0;whiteSpace=wrap;html=1;" parent="1" vertex="1">
          <mxGeometry x="750" y="226" width="60" height="61" as="geometry" />
        </mxCell>
        <mxCell id="KDbWSI9P8q5qAbHN0_yx-44" value="" style="endArrow=classic;rounded=0;entryX=0;entryY=0.5;entryDx=0;entryDy=0;exitX=1;exitY=0.5;exitDx=0;exitDy=0;html=1;" parent="1" source="KDbWSI9P8q5qAbHN0_yx-2" target="KDbWSI9P8q5qAbHN0_yx-8" edge="1">
          <mxGeometry width="50" height="50" relative="1" as="geometry">
            <mxPoint x="120" y="140" as="sourcePoint" />
            <mxPoint x="170" y="90" as="targetPoint" />
          </mxGeometry>
        </mxCell>
        <mxCell id="KDbWSI9P8q5qAbHN0_yx-45" value="" style="endArrow=classic;rounded=0;exitX=0;exitY=0.75;exitDx=0;exitDy=0;entryX=1;entryY=0.5;entryDx=0;entryDy=0;edgeStyle=orthogonalEdgeStyle;html=1;" parent="1" source="KDbWSI9P8q5qAbHN0_yx-8" target="KDbWSI9P8q5qAbHN0_yx-4" edge="1">
          <mxGeometry width="50" height="50" relative="1" as="geometry">
            <mxPoint x="390" y="270" as="sourcePoint" />
            <mxPoint x="440" y="220" as="targetPoint" />
            <Array as="points">
              <mxPoint x="170" y="151" />
              <mxPoint x="170" y="174" />
            </Array>
          </mxGeometry>
        </mxCell>
        <mxCell id="KDbWSI9P8q5qAbHN0_yx-48" value="in-bound" style="text;align=center;verticalAlign=middle;whiteSpace=wrap;rounded=0;html=1;" parent="1" vertex="1">
          <mxGeometry x="235" y="100" width="60" height="20" as="geometry" />
        </mxCell>
        <mxCell id="KDbWSI9P8q5qAbHN0_yx-49" value="out-bound" style="text;align=center;verticalAlign=middle;whiteSpace=wrap;rounded=0;html=1;" parent="1" vertex="1">
          <mxGeometry x="235" y="169" width="60" height="20" as="geometry" />
        </mxCell>
        <mxCell id="KDbWSI9P8q5qAbHN0_yx-50" value="&amp;#39;hw&amp;#39; NAT Table" style="text;align=center;verticalAlign=middle;whiteSpace=wrap;rounded=0;html=1;" parent="1" vertex="1">
          <mxGeometry x="222.5" y="280" width="85" height="20" as="geometry" />
        </mxCell>
        <mxCell id="KDbWSI9P8q5qAbHN0_yx-66" value="" style="endArrow=classic;rounded=0;html=1;" parent="1" edge="1">
          <mxGeometry width="50" height="50" relative="1" as="geometry">
            <mxPoint x="260" y="239" as="sourcePoint" />
            <mxPoint x="260" y="279" as="targetPoint" />
          </mxGeometry>
        </mxCell>
        <mxCell id="KDbWSI9P8q5qAbHN0_yx-68" value="R/W" style="text;align=center;verticalAlign=middle;whiteSpace=wrap;rounded=0;html=1;" parent="1" vertex="1">
          <mxGeometry x="270" y="250" width="30" height="20" as="geometry" />
        </mxCell>
        <mxCell id="KDbWSI9P8q5qAbHN0_yx-70" value="Driver" style="text;align=center;verticalAlign=middle;whiteSpace=wrap;rounded=0;html=1;" parent="1" vertex="1">
          <mxGeometry x="222.5" y="60" width="85" height="20" as="geometry" />
        </mxCell>
        <mxCell id="KDbWSI9P8q5qAbHN0_yx-72" value="" style="endArrow=classic;rounded=0;entryX=0;entryY=0.25;entryDx=0;entryDy=0;exitX=1.013;exitY=0.163;exitDx=0;exitDy=0;exitPerimeter=0;html=1;" parent="1" edge="1">
          <mxGeometry width="50" height="50" relative="1" as="geometry">
            <mxPoint x="354.2099999999998" y="192.5030000000001" as="sourcePoint" />
            <mxPoint x="410.5" y="192.68" as="targetPoint" />
          </mxGeometry>
        </mxCell>
        <mxCell id="KDbWSI9P8q5qAbHN0_yx-73" value="" style="endArrow=classic;rounded=0;exitX=0;exitY=0.5;exitDx=0;exitDy=0;html=1;" parent="1" source="KDbWSI9P8q5qAbHN0_yx-38" edge="1">
          <mxGeometry width="50" height="50" relative="1" as="geometry">
            <mxPoint x="400.5" y="212.5" as="sourcePoint" />
            <mxPoint x="353" y="201.5" as="targetPoint" />
          </mxGeometry>
        </mxCell>
        <mxCell id="KDbWSI9P8q5qAbHN0_yx-74" value="unhandled&lt;br&gt;packets" style="text;align=center;verticalAlign=middle;whiteSpace=wrap;rounded=0;fontSize=10;html=1;" parent="1" vertex="1">
          <mxGeometry x="350" y="169.5" width="65" height="20" as="geometry" />
        </mxCell>
        <mxCell id="KDbWSI9P8q5qAbHN0_yx-80" value="" style="endArrow=classic;rounded=0;html=1;" parent="1" edge="1">
          <mxGeometry width="50" height="50" relative="1" as="geometry">
            <mxPoint x="510.5" y="186.38" as="sourcePoint" />
            <mxPoint x="582" y="186.5" as="targetPoint" />
          </mxGeometry>
        </mxCell>
        <mxCell id="KDbWSI9P8q5qAbHN0_yx-81" value="" style="endArrow=classic;rounded=0;html=1;" parent="1" edge="1">
          <mxGeometry width="50" height="50" relative="1" as="geometry">
            <mxPoint x="582" y="202.5" as="sourcePoint" />
            <mxPoint x="512" y="202.5" as="targetPoint" />
          </mxGeometry>
        </mxCell>
        <mxCell id="KDbWSI9P8q5qAbHN0_yx-82" value="socket" style="text;align=center;verticalAlign=middle;whiteSpace=wrap;rounded=0;fontSize=12;html=1;" parent="1" vertex="1">
          <mxGeometry x="517" y="166.5" width="65" height="20" as="geometry" />
        </mxCell>
        <mxCell id="KDbWSI9P8q5qAbHN0_yx-83" value="inbound_pkt_handling" style="text;align=left;verticalAlign=middle;whiteSpace=wrap;rounded=0;html=1;" parent="1" vertex="1">
          <mxGeometry x="588.5" y="144.5" width="137" height="20" as="geometry" />
        </mxCell>
        <mxCell id="KDbWSI9P8q5qAbHN0_yx-84" value="outbound_pkt_handling" style="text;align=left;verticalAlign=middle;whiteSpace=wrap;rounded=0;html=1;" parent="1" vertex="1">
          <mxGeometry x="588.5" y="203.5" width="137" height="20" as="geometry" />
        </mxCell>
        <mxCell id="KDbWSI9P8q5qAbHN0_yx-85" value="slow_nat.c (userspace)" style="text;align=left;verticalAlign=middle;whiteSpace=wrap;rounded=0;html=1;" parent="1" vertex="1">
          <mxGeometry x="582" y="99" width="138" height="20" as="geometry" />
        </mxCell>
        <mxCell id="KDbWSI9P8q5qAbHN0_yx-86" value="DHCP Server" style="rounded=0;whiteSpace=wrap;html=1;" parent="1" vertex="1">
          <mxGeometry x="582" y="67.5" width="234" height="25" as="geometry" />
        </mxCell>
        <mxCell id="KDbWSI9P8q5qAbHN0_yx-88" value="srcIP" style="rounded=0;whiteSpace=wrap;fontSize=10;html=1;" parent="1" vertex="1">
          <mxGeometry x="490" y="310" width="30" height="20" as="geometry" />
        </mxCell>
        <mxCell id="KDbWSI9P8q5qAbHN0_yx-89" value="dstIP" style="rounded=0;whiteSpace=wrap;fontSize=10;html=1;" parent="1" vertex="1">
          <mxGeometry x="520" y="310" width="30" height="20" as="geometry" />
        </mxCell>
        <mxCell id="KDbWSI9P8q5qAbHN0_yx-90" value="srcPT" style="rounded=0;whiteSpace=wrap;fontSize=10;html=1;" parent="1" vertex="1">
          <mxGeometry x="580" y="310" width="30" height="20" as="geometry" />
        </mxCell>
        <mxCell id="KDbWSI9P8q5qAbHN0_yx-91" value="dstPT" style="rounded=0;whiteSpace=wrap;fontSize=10;html=1;" parent="1" vertex="1">
          <mxGeometry x="610" y="310" width="30" height="20" as="geometry" />
        </mxCell>
        <mxCell id="KDbWSI9P8q5qAbHN0_yx-92" value="TS" style="rounded=0;whiteSpace=wrap;fontSize=10;html=1;" parent="1" vertex="1">
          <mxGeometry x="700" y="310" width="30" height="20" as="geometry" />
        </mxCell>
        <mxCell id="KDbWSI9P8q5qAbHN0_yx-93" value="" style="rounded=0;whiteSpace=wrap;fillColor=#f5f5f5;fontColor=#333333;strokeColor=#666666;html=1;" parent="1" vertex="1">
          <mxGeometry x="490" y="330" width="30" height="20" as="geometry" />
        </mxCell>
        <mxCell id="KDbWSI9P8q5qAbHN0_yx-94" value="" style="rounded=0;whiteSpace=wrap;fillColor=#f5f5f5;fontColor=#333333;strokeColor=#666666;html=1;" parent="1" vertex="1">
          <mxGeometry x="520" y="330" width="30" height="20" as="geometry" />
        </mxCell>
        <mxCell id="KDbWSI9P8q5qAbHN0_yx-95" value="" style="rounded=0;whiteSpace=wrap;fillColor=#f5f5f5;fontColor=#333333;strokeColor=#666666;html=1;" parent="1" vertex="1">
          <mxGeometry x="580" y="330" width="30" height="20" as="geometry" />
        </mxCell>
        <mxCell id="KDbWSI9P8q5qAbHN0_yx-96" value="" style="rounded=0;whiteSpace=wrap;fillColor=#f5f5f5;fontColor=#333333;strokeColor=#666666;html=1;" parent="1" vertex="1">
          <mxGeometry x="610" y="330" width="30" height="20" as="geometry" />
        </mxCell>
        <mxCell id="KDbWSI9P8q5qAbHN0_yx-97" value="" style="rounded=0;whiteSpace=wrap;fillColor=#f5f5f5;fontColor=#333333;strokeColor=#666666;html=1;" parent="1" vertex="1">
          <mxGeometry x="700" y="330" width="30" height="20" as="geometry" />
        </mxCell>
        <mxCell id="KDbWSI9P8q5qAbHN0_yx-98" value="" style="rounded=0;whiteSpace=wrap;fillColor=#f5f5f5;fontColor=#333333;strokeColor=#666666;html=1;" parent="1" vertex="1">
          <mxGeometry x="490" y="350" width="30" height="20" as="geometry" />
        </mxCell>
        <mxCell id="KDbWSI9P8q5qAbHN0_yx-99" value="" style="rounded=0;whiteSpace=wrap;fillColor=#f5f5f5;fontColor=#333333;strokeColor=#666666;html=1;" parent="1" vertex="1">
          <mxGeometry x="520" y="350" width="30" height="20" as="geometry" />
        </mxCell>
        <mxCell id="KDbWSI9P8q5qAbHN0_yx-100" value="" style="rounded=0;whiteSpace=wrap;fillColor=#f5f5f5;fontColor=#333333;strokeColor=#666666;html=1;" parent="1" vertex="1">
          <mxGeometry x="580" y="350" width="30" height="20" as="geometry" />
        </mxCell>
        <mxCell id="KDbWSI9P8q5qAbHN0_yx-101" value="" style="rounded=0;whiteSpace=wrap;fillColor=#f5f5f5;fontColor=#333333;strokeColor=#666666;html=1;" parent="1" vertex="1">
          <mxGeometry x="610" y="350" width="30" height="20" as="geometry" />
        </mxCell>
        <mxCell id="KDbWSI9P8q5qAbHN0_yx-102" value="" style="rounded=0;whiteSpace=wrap;fillColor=#f5f5f5;fontColor=#333333;strokeColor=#666666;html=1;" parent="1" vertex="1">
          <mxGeometry x="700" y="350" width="30" height="20" as="geometry" />
        </mxCell>
        <mxCell id="KDbWSI9P8q5qAbHN0_yx-103" value="" style="rounded=0;whiteSpace=wrap;fillColor=#f5f5f5;fontColor=#333333;strokeColor=#666666;html=1;" parent="1" vertex="1">
          <mxGeometry x="490" y="370" width="30" height="20" as="geometry" />
        </mxCell>
        <mxCell id="KDbWSI9P8q5qAbHN0_yx-104" value="" style="rounded=0;whiteSpace=wrap;fillColor=#f5f5f5;fontColor=#333333;strokeColor=#666666;html=1;" parent="1" vertex="1">
          <mxGeometry x="520" y="370" width="30" height="20" as="geometry" />
        </mxCell>
        <mxCell id="KDbWSI9P8q5qAbHN0_yx-105" value="" style="rounded=0;whiteSpace=wrap;fillColor=#f5f5f5;fontColor=#333333;strokeColor=#666666;html=1;" parent="1" vertex="1">
          <mxGeometry x="580" y="370" width="30" height="20" as="geometry" />
        </mxCell>
        <mxCell id="KDbWSI9P8q5qAbHN0_yx-106" value="" style="rounded=0;whiteSpace=wrap;fillColor=#f5f5f5;fontColor=#333333;strokeColor=#666666;html=1;" parent="1" vertex="1">
          <mxGeometry x="610" y="370" width="30" height="20" as="geometry" />
        </mxCell>
        <mxCell id="KDbWSI9P8q5qAbHN0_yx-107" value="" style="rounded=0;whiteSpace=wrap;fillColor=#f5f5f5;fontColor=#333333;strokeColor=#666666;html=1;" parent="1" vertex="1">
          <mxGeometry x="700" y="370" width="30" height="20" as="geometry" />
        </mxCell>
        <mxCell id="KDbWSI9P8q5qAbHN0_yx-113" value="&amp;#39;sw&amp;#39; NAT Table" style="text;align=center;verticalAlign=middle;whiteSpace=wrap;rounded=0;html=1;" parent="1" vertex="1">
          <mxGeometry x="585" y="291" width="85" height="20" as="geometry" />
        </mxCell>
        <mxCell id="KDbWSI9P8q5qAbHN0_yx-114" value="TCP_status" style="rounded=0;whiteSpace=wrap;fontSize=10;html=1;" parent="1" vertex="1">
          <mxGeometry x="730" y="310" width="60" height="20" as="geometry" />
        </mxCell>
        <mxCell id="KDbWSI9P8q5qAbHN0_yx-115" value="" style="rounded=0;whiteSpace=wrap;fillColor=#f5f5f5;fontColor=#333333;strokeColor=#666666;html=1;" parent="1" vertex="1">
          <mxGeometry x="730" y="330" width="60" height="20" as="geometry" />
        </mxCell>
        <mxCell id="KDbWSI9P8q5qAbHN0_yx-116" value="" style="rounded=0;whiteSpace=wrap;fillColor=#f5f5f5;fontColor=#333333;strokeColor=#666666;html=1;" parent="1" vertex="1">
          <mxGeometry x="730" y="350" width="60" height="20" as="geometry" />
        </mxCell>
        <mxCell id="KDbWSI9P8q5qAbHN0_yx-117" value="" style="rounded=0;whiteSpace=wrap;fillColor=#f5f5f5;fontColor=#333333;strokeColor=#666666;html=1;" parent="1" vertex="1">
          <mxGeometry x="730" y="370" width="60" height="20" as="geometry" />
        </mxCell>
        <mxCell id="KDbWSI9P8q5qAbHN0_yx-119" value="" style="endArrow=classic;rounded=0;exitX=0;exitY=0.5;exitDx=0;exitDy=0;entryX=1;entryY=0;entryDx=0;entryDy=0;html=1;" parent="1" source="KDbWSI9P8q5qAbHN0_yx-93" target="KDbWSI9P8q5qAbHN0_yx-27" edge="1">
          <mxGeometry width="50" height="50" relative="1" as="geometry">
            <mxPoint x="370" y="330" as="sourcePoint" />
            <mxPoint x="360" y="340" as="targetPoint" />
          </mxGeometry>
        </mxCell>
        <mxCell id="KDbWSI9P8q5qAbHN0_yx-120" value="" style="endArrow=classic;rounded=0;exitX=0;exitY=0;exitDx=0;exitDy=0;entryX=1;entryY=0.5;entryDx=0;entryDy=0;html=1;" parent="1" source="KDbWSI9P8q5qAbHN0_yx-103" target="KDbWSI9P8q5qAbHN0_yx-32" edge="1">
          <mxGeometry width="50" height="50" relative="1" as="geometry">
            <mxPoint x="560" y="370" as="sourcePoint" />
            <mxPoint x="360" y="370" as="targetPoint" />
          </mxGeometry>
        </mxCell>
        <mxCell id="KDbWSI9P8q5qAbHN0_yx-121" value="pull timestamp" style="text;align=center;verticalAlign=middle;whiteSpace=wrap;rounded=0;html=1;" parent="1" vertex="1">
          <mxGeometry x="353" y="350" width="137" height="20" as="geometry" />
        </mxCell>
        <mxCell id="KDbWSI9P8q5qAbHN0_yx-124" value="fast_nat.c (ebpf xdp)" style="text;align=center;verticalAlign=middle;whiteSpace=wrap;rounded=0;html=1;" parent="1" vertex="1">
          <mxGeometry x="207" y="80" width="117.5" height="20" as="geometry" />
        </mxCell>
        <mxCell id="KDbWSI9P8q5qAbHN0_yx-125" value="add/delete NAT entry" style="text;align=center;verticalAlign=middle;whiteSpace=wrap;rounded=0;html=1;" parent="1" vertex="1">
          <mxGeometry x="353" y="320" width="137" height="20" as="geometry" />
        </mxCell>
        <mxCell id="KDbWSI9P8q5qAbHN0_yx-126" value="" style="endArrow=classic;rounded=0;exitX=0;exitY=0.25;exitDx=0;exitDy=0;entryX=0.5;entryY=0;entryDx=0;entryDy=0;edgeStyle=orthogonalEdgeStyle;curved=1;html=1;" parent="1" source="KDbWSI9P8q5qAbHN0_yx-86" target="KDbWSI9P8q5qAbHN0_yx-38" edge="1">
          <mxGeometry width="50" height="50" relative="1" as="geometry">
            <mxPoint x="560" y="252.5" as="sourcePoint" />
            <mxPoint x="610" y="202.5" as="targetPoint" />
          </mxGeometry>
        </mxCell>
        <mxCell id="KDbWSI9P8q5qAbHN0_yx-127" value="" style="endArrow=none;rounded=0;exitX=0;exitY=0.75;exitDx=0;exitDy=0;edgeStyle=orthogonalEdgeStyle;curved=1;entryX=0.606;entryY=-0.004;entryDx=0;entryDy=0;entryPerimeter=0;startFill=1;startArrow=classic;html=1;" parent="1" source="KDbWSI9P8q5qAbHN0_yx-86" target="KDbWSI9P8q5qAbHN0_yx-38" edge="1">
          <mxGeometry width="50" height="50" relative="1" as="geometry">
            <mxPoint x="582" y="92.5" as="sourcePoint" />
            <mxPoint x="470" y="162.5" as="targetPoint" />
          </mxGeometry>
        </mxCell>
        <mxCell id="KDbWSI9P8q5qAbHN0_yx-128" value="socket" style="text;align=center;verticalAlign=middle;whiteSpace=wrap;rounded=0;fontSize=12;rotation=0;html=1;" parent="1" vertex="1">
          <mxGeometry x="445.5" y="72.5" width="65" height="20" as="geometry" />
        </mxCell>
        <mxCell id="KDbWSI9P8q5qAbHN0_yx-130" value="worker 1" style="text;align=left;verticalAlign=middle;whiteSpace=wrap;rounded=0;fontSize=13;html=1;" parent="1" vertex="1">
          <mxGeometry x="656" y="121.5" width="52" height="20" as="geometry" />
        </mxCell>
        <mxCell id="KDbWSI9P8q5qAbHN0_yx-131" value="" style="endArrow=none;rounded=0;dashed=1;entryX=0.997;entryY=0.14;entryDx=0;entryDy=0;entryPerimeter=0;html=1;" parent="1" target="KDbWSI9P8q5qAbHN0_yx-39" edge="1">
          <mxGeometry width="50" height="50" relative="1" as="geometry">
            <mxPoint x="586" y="143.5" as="sourcePoint" />
            <mxPoint x="786" y="143.5" as="targetPoint" />
          </mxGeometry>
        </mxCell>
        <mxCell id="KDbWSI9P8q5qAbHN0_yx-133" value="basic NAT translation for existing sessions" style="text;align=center;verticalAlign=middle;whiteSpace=wrap;rounded=0;fontSize=10;html=1;" parent="1" vertex="1">
          <mxGeometry x="225" y="121" width="80" height="39" as="geometry" />
        </mxCell>
        <mxCell id="KDbWSI9P8q5qAbHN0_yx-134" value="basic NAT translation for existing sessions" style="text;align=center;verticalAlign=middle;whiteSpace=wrap;rounded=0;fontSize=10;html=1;" parent="1" vertex="1">
          <mxGeometry x="225" y="191" width="80" height="39" as="geometry" />
        </mxCell>
        <mxCell id="KDbWSI9P8q5qAbHN0_yx-135" value="" style="endArrow=none;rounded=0;dashed=1;entryX=1;entryY=0.297;entryDx=0;entryDy=0;entryPerimeter=0;html=1;" parent="1" target="KDbWSI9P8q5qAbHN0_yx-8" edge="1">
          <mxGeometry width="50" height="50" relative="1" as="geometry">
            <mxPoint x="215" y="120.00000000000001" as="sourcePoint" />
            <mxPoint x="310" y="120" as="targetPoint" />
          </mxGeometry>
        </mxCell>
        <mxCell id="KDbWSI9P8q5qAbHN0_yx-136" value="" style="endArrow=none;rounded=0;dashed=1;entryX=1;entryY=0.297;entryDx=0;entryDy=0;entryPerimeter=0;html=1;" parent="1" edge="1">
          <mxGeometry width="50" height="50" relative="1" as="geometry">
            <mxPoint x="215" y="189" as="sourcePoint" />
            <mxPoint x="315" y="189" as="targetPoint" />
          </mxGeometry>
        </mxCell>
        <mxCell id="KDbWSI9P8q5qAbHN0_yx-139" value="worker 3" style="rounded=0;whiteSpace=wrap;html=1;" parent="1" vertex="1">
          <mxGeometry x="750" y="176.5" width="60" height="53.5" as="geometry" />
        </mxCell>
        <mxCell id="KDbWSI9P8q5qAbHN0_yx-140" value="- port forwarding&lt;br&gt;- PMTUD/IP fragmentation&lt;br&gt;- TCP teardown&lt;br&gt;- ICMP errors&lt;br&gt;&lt;br&gt;" style="text;align=left;verticalAlign=middle;whiteSpace=wrap;rounded=0;fontSize=9;html=1;" parent="1" vertex="1">
          <mxGeometry x="600" y="168" width="110" height="41" as="geometry" />
        </mxCell>
        <mxCell id="KDbWSI9P8q5qAbHN0_yx-141" value="- new sessions&lt;br&gt;- hairpinning&lt;br&gt;- content filtering&lt;br&gt;- PMTUD/IP fragmentation&lt;br&gt;- TCP teardown&lt;br&gt;- ICMP errors&lt;br&gt;&lt;br&gt;" style="text;align=left;verticalAlign=middle;whiteSpace=wrap;rounded=0;fontSize=9;html=1;" parent="1" vertex="1">
          <mxGeometry x="600" y="227" width="111.5" height="60" as="geometry" />
        </mxCell>
        <mxCell id="KDbWSI9P8q5qAbHN0_yx-142" value="static" style="rounded=0;whiteSpace=wrap;fontSize=10;html=1;" parent="1" vertex="1">
          <mxGeometry x="790" y="310" width="38" height="20" as="geometry" />
        </mxCell>
        <mxCell id="KDbWSI9P8q5qAbHN0_yx-143" value="" style="rounded=0;whiteSpace=wrap;fillColor=#f5f5f5;fontColor=#333333;strokeColor=#666666;html=1;" parent="1" vertex="1">
          <mxGeometry x="790" y="330" width="38" height="20" as="geometry" />
        </mxCell>
        <mxCell id="KDbWSI9P8q5qAbHN0_yx-144" value="" style="rounded=0;whiteSpace=wrap;fillColor=#f5f5f5;fontColor=#333333;strokeColor=#666666;html=1;" parent="1" vertex="1">
          <mxGeometry x="790" y="350" width="38" height="20" as="geometry" />
        </mxCell>
        <mxCell id="KDbWSI9P8q5qAbHN0_yx-145" value="" style="rounded=0;whiteSpace=wrap;fillColor=#f5f5f5;fontColor=#333333;strokeColor=#666666;html=1;" parent="1" vertex="1">
          <mxGeometry x="790" y="370" width="38" height="20" as="geometry" />
        </mxCell>
        <mxCell id="KDbWSI9P8q5qAbHN0_yx-147" value="extIP" style="rounded=0;whiteSpace=wrap;fontSize=10;html=1;" parent="1" vertex="1">
          <mxGeometry x="550" y="310" width="30" height="20" as="geometry" />
        </mxCell>
        <mxCell id="KDbWSI9P8q5qAbHN0_yx-148" value="" style="rounded=0;whiteSpace=wrap;fillColor=#f5f5f5;fontColor=#333333;strokeColor=#666666;html=1;" parent="1" vertex="1">
          <mxGeometry x="550" y="330" width="30" height="20" as="geometry" />
        </mxCell>
        <mxCell id="KDbWSI9P8q5qAbHN0_yx-149" value="" style="rounded=0;whiteSpace=wrap;fillColor=#f5f5f5;fontColor=#333333;strokeColor=#666666;html=1;" parent="1" vertex="1">
          <mxGeometry x="550" y="350" width="30" height="20" as="geometry" />
        </mxCell>
        <mxCell id="KDbWSI9P8q5qAbHN0_yx-150" value="" style="rounded=0;whiteSpace=wrap;fillColor=#f5f5f5;fontColor=#333333;strokeColor=#666666;html=1;" parent="1" vertex="1">
          <mxGeometry x="550" y="370" width="30" height="20" as="geometry" />
        </mxCell>
        <mxCell id="KDbWSI9P8q5qAbHN0_yx-151" value="extPT" style="rounded=0;whiteSpace=wrap;fontSize=10;html=1;" parent="1" vertex="1">
          <mxGeometry x="640" y="310" width="30" height="20" as="geometry" />
        </mxCell>
        <mxCell id="KDbWSI9P8q5qAbHN0_yx-152" value="" style="rounded=0;whiteSpace=wrap;fillColor=#f5f5f5;fontColor=#333333;strokeColor=#666666;html=1;" parent="1" vertex="1">
          <mxGeometry x="640" y="330" width="30" height="20" as="geometry" />
        </mxCell>
        <mxCell id="KDbWSI9P8q5qAbHN0_yx-153" value="" style="rounded=0;whiteSpace=wrap;fillColor=#f5f5f5;fontColor=#333333;strokeColor=#666666;html=1;" parent="1" vertex="1">
          <mxGeometry x="640" y="350" width="30" height="20" as="geometry" />
        </mxCell>
        <mxCell id="KDbWSI9P8q5qAbHN0_yx-154" value="" style="rounded=0;whiteSpace=wrap;fillColor=#f5f5f5;fontColor=#333333;strokeColor=#666666;html=1;" parent="1" vertex="1">
          <mxGeometry x="640" y="370" width="30" height="20" as="geometry" />
        </mxCell>
        <mxCell id="KDbWSI9P8q5qAbHN0_yx-155" value="proto" style="rounded=0;whiteSpace=wrap;fontSize=10;html=1;" parent="1" vertex="1">
          <mxGeometry x="670" y="310" width="30" height="20" as="geometry" />
        </mxCell>
        <mxCell id="KDbWSI9P8q5qAbHN0_yx-156" value="" style="rounded=0;whiteSpace=wrap;fillColor=#f5f5f5;fontColor=#333333;strokeColor=#666666;html=1;" parent="1" vertex="1">
          <mxGeometry x="670" y="330" width="30" height="20" as="geometry" />
        </mxCell>
        <mxCell id="KDbWSI9P8q5qAbHN0_yx-157" value="" style="rounded=0;whiteSpace=wrap;fillColor=#f5f5f5;fontColor=#333333;strokeColor=#666666;html=1;" parent="1" vertex="1">
          <mxGeometry x="670" y="350" width="30" height="20" as="geometry" />
        </mxCell>
        <mxCell id="KDbWSI9P8q5qAbHN0_yx-158" value="" style="rounded=0;whiteSpace=wrap;fillColor=#f5f5f5;fontColor=#333333;strokeColor=#666666;html=1;" parent="1" vertex="1">
          <mxGeometry x="670" y="370" width="30" height="20" as="geometry" />
        </mxCell>
        <mxCell id="KDbWSI9P8q5qAbHN0_yx-160" value="" style="endArrow=none;html=1;rounded=0;dashed=1;dashPattern=8 8;" parent="1" edge="1">
          <mxGeometry width="50" height="50" relative="1" as="geometry">
            <mxPoint x="570" y="289" as="sourcePoint" />
            <mxPoint x="570.5" y="59" as="targetPoint" />
          </mxGeometry>
        </mxCell>
        <mxCell id="KDbWSI9P8q5qAbHN0_yx-161" value="" style="endArrow=none;html=1;rounded=0;dashed=1;dashPattern=8 8;" parent="1" edge="1">
          <mxGeometry width="50" height="50" relative="1" as="geometry">
            <mxPoint x="841" y="400" as="sourcePoint" />
            <mxPoint x="840.5" y="59" as="targetPoint" />
          </mxGeometry>
        </mxCell>
        <mxCell id="KDbWSI9P8q5qAbHN0_yx-162" value="" style="endArrow=none;html=1;rounded=0;dashed=1;dashPattern=8 8;" parent="1" edge="1">
          <mxGeometry width="50" height="50" relative="1" as="geometry">
            <mxPoint x="480" y="400" as="sourcePoint" />
            <mxPoint x="840" y="400" as="targetPoint" />
          </mxGeometry>
        </mxCell>
        <mxCell id="KDbWSI9P8q5qAbHN0_yx-163" value="" style="endArrow=none;html=1;rounded=0;dashed=1;dashPattern=8 8;" parent="1" edge="1">
          <mxGeometry width="50" height="50" relative="1" as="geometry">
            <mxPoint x="570" y="60" as="sourcePoint" />
            <mxPoint x="840" y="60" as="targetPoint" />
          </mxGeometry>
        </mxCell>
        <mxCell id="KDbWSI9P8q5qAbHN0_yx-164" value="" style="endArrow=none;html=1;rounded=0;dashed=1;dashPattern=8 8;" parent="1" edge="1">
          <mxGeometry width="50" height="50" relative="1" as="geometry">
            <mxPoint x="480" y="290" as="sourcePoint" />
            <mxPoint x="570" y="289.65999999999997" as="targetPoint" />
          </mxGeometry>
        </mxCell>
        <mxCell id="KDbWSI9P8q5qAbHN0_yx-165" value="" style="endArrow=none;html=1;rounded=0;dashed=1;dashPattern=8 8;" parent="1" edge="1">
          <mxGeometry width="50" height="50" relative="1" as="geometry">
            <mxPoint x="479" y="400" as="sourcePoint" />
            <mxPoint x="479.15999999999997" y="291" as="targetPoint" />
          </mxGeometry>
        </mxCell>
        <mxCell id="KDbWSI9P8q5qAbHN0_yx-166" value="Userspace" style="text;align=center;verticalAlign=middle;whiteSpace=wrap;rounded=0;html=1;" parent="1" vertex="1">
          <mxGeometry x="665" y="40" width="85" height="20" as="geometry" />
        </mxCell>
        <mxCell id="np3f1v3UhyzFMKkLtmkh-3" value="" style="endArrow=classic;rounded=0;html=1;strokeWidth=1;endSize=6;" edge="1" parent="1">
          <mxGeometry width="50" height="50" relative="1" as="geometry">
            <mxPoint x="694" y="288" as="sourcePoint" />
            <mxPoint x="694" y="308" as="targetPoint" />
          </mxGeometry>
        </mxCell>
        <mxCell id="np3f1v3UhyzFMKkLtmkh-5" value="R/W" style="text;align=center;verticalAlign=middle;whiteSpace=wrap;rounded=0;html=1;" vertex="1" parent="1">
          <mxGeometry x="700" y="287" width="30" height="20" as="geometry" />
        </mxCell>
      </root>
    </mxGraphModel>
  </diagram>
</mxfile>
